<svg width="26" height="25" viewBox="0 0 26 25" fill="none" xmlns="http://www.w3.org/2000/svg">
<path d="M24.7868 17.6656L19.3181 15.3218C19.0845 15.2223 18.8248 15.2013 18.5782 15.262C18.3317 15.3228 18.1115 15.462 17.9509 15.6587L15.529 18.6177C11.7281 16.8256 8.66926 13.7668 6.87717 9.96587L9.83615 7.54399C10.0333 7.38368 10.1728 7.16351 10.2336 6.91682C10.2944 6.67013 10.2731 6.41035 10.1731 6.1768L7.82932 0.708053C7.71951 0.4563 7.5253 0.250751 7.28017 0.126852C7.03505 0.00295173 6.75437 -0.0315334 6.48654 0.0293424L1.40842 1.20122C1.1502 1.26085 0.919816 1.40624 0.754869 1.61366C0.589923 1.82109 0.500154 2.07829 0.500214 2.34331C0.500214 14.8677 10.6516 24.9996 23.1565 24.9996C23.4216 24.9997 23.6789 24.91 23.8864 24.7451C24.0939 24.5801 24.2394 24.3497 24.299 24.0914L25.4709 19.0132C25.5314 18.7441 25.4962 18.4623 25.3713 18.2163C25.2465 17.9704 25.0398 17.7756 24.7868 17.6656Z" fill="#1E1E1E"/>
</svg>
