<svg width="32" height="32" viewBox="0 0 32 32" fill="none" xmlns="http://www.w3.org/2000/svg">
<path fill-rule="evenodd" clip-rule="evenodd" d="M19.3531 23.2205C19.5842 23.3903 19.8815 23.4317 20.1471 23.3283C20.4128 23.2249 20.6095 22.9916 20.6669 22.708C21.2915 19.692 22.805 12.0576 23.3722 9.31493C23.4152 9.10816 23.3449 8.894 23.1869 8.75516C23.029 8.61781 22.8093 8.57793 22.614 8.65178C19.6043 9.7979 10.3327 13.3751 6.54331 14.8181C6.30208 14.9097 6.14556 15.1474 6.15418 15.4089C6.16279 15.6703 6.33367 15.8963 6.57921 15.9716C8.27932 16.4944 10.5107 17.2226 10.5107 17.2226C10.5107 17.2226 11.5518 20.4615 12.096 22.1083C12.1635 22.3136 12.3214 22.4776 12.5282 22.5322C12.7364 22.5884 12.9561 22.5308 13.1112 22.3801C13.9842 21.5323 15.3339 20.2223 15.3339 20.2223C15.3339 20.2223 17.8985 22.1556 19.3531 23.2205ZM11.4484 16.8135L12.6545 20.9031L12.9216 18.3126C12.9216 18.3126 17.5783 13.9925 20.2333 11.5289C20.3122 11.458 20.3223 11.3369 20.2577 11.2512C20.1931 11.167 20.0767 11.1464 19.9877 11.204C16.9106 13.2244 11.4484 16.8135 11.4484 16.8135Z" fill="white"/>
<circle cx="16" cy="16" r="15.5" stroke="white"/>
</svg>
