<svg width="32" height="32" viewBox="0 0 32 32" fill="none" xmlns="http://www.w3.org/2000/svg">
<circle cx="16" cy="16" r="15.5" stroke="white"/>
<path d="M16.9534 22.5594C17.4523 22.5594 17.6574 22.2246 17.6508 21.8078C17.6246 20.2357 18.235 19.3889 19.3411 20.4917C20.562 21.7126 20.8115 22.5594 22.2966 22.5594H24.9239C25.5852 22.5594 25.8461 22.3461 25.8461 22.0113C25.8461 21.3024 24.6793 20.0519 23.6931 19.1362C22.3081 17.8513 22.2457 17.8201 23.4371 16.2743C24.914 14.3559 26.8488 11.8977 25.1388 11.8977H21.8716C21.2365 11.8977 21.1922 12.2538 20.9674 12.7871C20.1501 14.712 18.5993 17.2064 18.0086 16.8257C17.3899 16.4269 17.6738 14.8515 17.7214 12.5098C17.7345 11.8911 17.7312 11.4661 16.7844 11.2462C16.2691 11.1264 15.7653 11.0771 15.3025 11.0771C13.4367 11.0771 12.1485 11.8599 12.8787 11.9961C14.1669 12.2357 14.0455 15.0255 13.7436 16.23C13.2201 18.3272 11.2525 14.5693 10.432 12.6985C10.235 12.2472 10.1776 11.8977 9.47032 11.8977H6.80037C6.39504 11.8977 6.15381 12.0289 6.15381 12.321C6.15381 12.815 8.58089 17.8349 10.8997 20.3375C13.1626 22.7777 15.3993 22.5594 16.9534 22.5594Z" fill="white"/>
</svg>
