<svg width="27" height="26" viewBox="0 0 27 26" fill="none" xmlns="http://www.w3.org/2000/svg">
<path d="M0.713558 25.1756L2.32684 19.3655L2.38343 19.1617L2.27658 18.9792C1.18293 17.1108 0.608319 14.9932 0.60937 12.8211C0.61252 6.03513 6.21691 0.500205 13.1166 0.500122L0.713558 25.1756ZM0.713558 25.1756L6.77058 23.6092L6.9602 23.5602L7.13267 23.653C8.95896 24.6356 11.0223 25.1535 13.117 25.1545C20.0165 25.1544 25.6209 19.6196 25.6241 12.8326L0.713558 25.1756ZM21.9668 4.11668C19.6046 1.786 16.4653 0.501199 13.1167 0.500122L21.9668 4.11668ZM21.9668 4.11668C24.3276 6.44719 25.6251 9.54088 25.6241 12.8325L21.9668 4.11668Z" stroke="#1E1E1E"/>
<path d="M19.9493 15.6567C19.8635 15.5129 19.634 15.4271 19.2885 15.2544C18.9443 15.0816 17.2507 14.248 16.9343 14.1332C16.619 14.0185 16.3895 13.9605 16.1588 14.306C15.9293 14.6503 15.2686 15.4271 15.0681 15.6567C14.8675 15.8863 14.6658 15.9152 14.3216 15.7425C13.9773 15.5697 12.8668 15.2069 11.5512 14.0324C10.5277 13.1188 9.83564 11.9907 9.63511 11.6452C9.43457 11.3008 9.61424 11.1141 9.78579 10.9426C9.94112 10.7884 10.1301 10.5402 10.3028 10.3385C10.4778 10.1391 10.5346 9.99532 10.6505 9.76459C10.7653 9.53503 10.7085 9.3333 10.6215 9.16054C10.5346 8.98895 9.84607 7.29274 9.55976 6.60289C9.27925 5.9316 8.99525 6.02203 8.78429 6.01159L8.12357 6C7.89406 6 7.52081 6.0858 7.20552 6.4313C6.89023 6.7768 6 7.60926 6 9.30547C6 11.0017 7.2345 12.6399 7.40605 12.8695C7.57877 13.099 9.83448 16.5796 13.2899 18.0717C14.1118 18.4265 14.7539 18.6387 15.2535 18.7975C16.0788 19.0596 16.83 19.0225 17.4235 18.9343C18.0853 18.8358 19.4612 18.1007 19.7487 17.2961C20.0362 16.4903 20.0362 15.8005 19.9493 15.6567Z" fill="#1E1E1E"/>
</svg>
