<svg width="33" height="32" viewBox="0 0 33 32" fill="none" xmlns="http://www.w3.org/2000/svg">
<path d="M0.712275 31.1458L2.7371 23.8026L2.79294 23.6001L2.68736 23.4184C1.34029 21.101 0.63238 18.4741 0.633674 15.7796C0.637556 7.35916 7.54188 0.500084 16.0314 0.5L0.712275 31.1458ZM0.712275 31.1458L8.30215 29.1693L8.49297 29.1196L8.66634 29.2135C10.9146 30.4316 13.4541 31.0734 16.0318 31.0746C24.5212 31.0745 31.4255 24.2155 31.4294 15.7938L0.712275 31.1458ZM26.9251 4.98319C24.0168 2.09358 20.1522 0.501326 16.0316 0.5L26.9251 4.98319ZM26.9251 4.98319C29.832 7.87275 31.4307 11.7103 31.4294 15.7937L26.9251 4.98319Z" stroke="white"/>
<path d="M24.3826 19.2699C24.2777 19.093 23.9972 18.9874 23.575 18.7748C23.1543 18.5622 21.0844 17.5362 20.6976 17.3949C20.3123 17.2536 20.0318 17.1823 19.7498 17.6075C19.4693 18.0313 18.6618 18.9874 18.4167 19.2699C18.1716 19.5525 17.9251 19.5881 17.5043 19.3755C17.0835 19.1629 15.7263 18.7163 14.1183 17.2708C12.8673 16.1463 12.0215 14.7579 11.7764 14.3326C11.5313 13.9088 11.7509 13.6791 11.9606 13.4679C12.1504 13.2781 12.3814 12.9727 12.5924 12.7245C12.8064 12.479 12.8758 12.3021 13.0175 12.0181C13.1577 11.7356 13.0883 11.4873 12.9821 11.2747C12.8758 11.0635 12.0343 8.97583 11.6843 8.12679C11.3415 7.30058 10.9944 7.41188 10.7365 7.39904L9.92897 7.38477C9.64846 7.38477 9.19226 7.49036 8.80691 7.91559C8.42155 8.34083 7.3335 9.36539 7.3335 11.453C7.3335 13.5407 8.84233 15.557 9.052 15.8395C9.2631 16.1221 12.0201 20.4058 16.2434 22.2423C17.2479 22.6789 18.0327 22.9401 18.6434 23.1356C19.6521 23.4581 20.5701 23.4124 21.2955 23.304C22.1045 23.1827 23.7861 22.278 24.1375 21.2877C24.4888 20.2959 24.4888 19.4469 24.3826 19.2699Z" fill="white"/>
</svg>
