<svg width="41" height="41" viewBox="0 0 41 41" fill="none" xmlns="http://www.w3.org/2000/svg">
<g clip-path="url(#clip0_2014_1150)">
<path d="M9.35314 21.3969C7.8797 17.2969 8.00782 12.7484 9.60939 8.7125C9.99376 7.6875 10.9547 7.04687 12.0438 7.04687C12.6203 7.04687 13.1328 7.30312 13.5172 7.62344C12.8766 7.94375 12.3 8.32812 11.9156 8.7125C11.6594 8.96875 11.6594 9.35312 11.9156 9.60937C12.1719 9.86562 12.5563 9.86562 12.8125 9.60937C12.8766 9.54531 13.6453 8.77656 14.8625 8.45625C14.8625 8.45625 17.4891 7.6875 19.0266 9.54531C20.5641 11.3391 22.2297 11.0187 22.2297 11.0187C23.7672 11.0187 24.9203 9.99375 25.3047 9.54531L26.9063 7.87969C27.4188 7.36719 28.0594 7.04687 28.7641 7.04687C29.1484 7.04687 29.4047 6.79062 29.4047 6.40625C29.4047 6.02187 29.1484 5.76562 28.7641 5.76562C27.8031 5.76562 26.8422 6.15 26.1375 6.79062C24.9203 5.89375 22.1016 5.76562 22.1016 5.76562C19.7953 5.76562 18.1297 6.79062 17.5531 7.23906C16.5922 6.91875 15.6953 6.98281 14.8625 7.11094C14.4141 6.6625 13.3891 5.76562 12.0438 5.76562C10.5063 5.76562 9.09689 6.72656 8.45626 8.26406C6.66251 12.6203 6.59845 17.425 8.13595 21.8453C8.20001 22.1016 8.58439 22.3578 8.96876 22.2297C9.28907 22.1016 9.48126 21.7172 9.35314 21.3969ZM22.1016 7.04687C23.5109 7.04687 24.5359 7.43125 25.1766 7.75156L24.3438 8.64844C24.0234 8.96875 23.1906 9.67344 22.1656 9.7375C21.3969 9.7375 20.6281 9.35312 19.8594 8.64844C19.5391 8.32812 19.2188 8.13594 18.8984 7.94375C19.6031 7.49531 20.6922 7.04687 22.1016 7.04687ZM10.8906 25.6891L10.3141 24.1516C10.1859 23.8312 9.80157 23.6391 9.48126 23.7672C9.16095 23.8953 8.96876 24.2797 9.09689 24.6L9.67345 26.1375C9.73751 26.3937 9.99376 26.65 10.5063 26.5219C10.8266 26.3937 11.0188 26.0094 10.8906 25.6891ZM31.1984 6.79062C30.9422 6.53437 30.5578 6.59844 30.3016 6.85469C30.0453 7.11094 30.1094 7.49531 30.3656 7.75156C31.0703 8.39219 31.3906 9.28906 31.3906 9.28906C32.9281 13.0047 33.1203 17.1687 31.9672 21.0766L28.4438 32.8C28.0594 34.0812 27.0344 34.0172 26.9063 34.0172C26.9063 34.0172 25.4969 34.0172 25.3047 32.7359L23.8313 26.5219C23.5109 25.1766 22.3578 24.2797 21.0125 24.2797C19.6672 24.2797 18.5141 25.2406 18.1938 26.5219L16.7203 32.6719C16.5281 33.4406 15.8875 33.9531 15.1188 33.9531C14.9906 33.9531 13.8375 33.9531 13.4531 32.8641L11.7875 28.1875C11.6594 27.8672 11.275 27.675 10.9547 27.8031C10.6344 27.9312 10.4422 28.3156 10.5703 28.6359L12.2359 33.3125C12.9406 35.4266 15.1188 35.2984 15.1188 35.2984C16.4641 35.2984 17.6172 34.3375 17.9375 33.0562L19.4109 26.8422C19.6031 26.0734 20.2438 25.5609 20.9484 25.5609C21.6531 25.5609 22.2938 26.0734 22.4859 26.8422L23.9594 33.0562C24.2797 34.4016 25.4328 35.2984 26.7141 35.3625C27.4828 35.4266 29.0844 35.1062 29.5969 33.2484L33.0563 21.525C34.2734 17.3609 34.0813 12.8766 32.4156 8.90469C32.5438 8.7125 32.0953 7.62344 31.1984 6.79062Z" fill="white"/>
<path d="M29.5328 22.4219C29.2125 22.2938 28.8281 22.4859 28.7 22.8062L28.2516 24.0875C28.1234 24.4078 28.3156 24.7922 28.6359 24.9203C28.9563 25.0484 29.3406 24.7922 29.4688 24.5359L29.9172 23.2547C30.0453 22.9344 29.9172 22.55 29.5328 22.4219ZM28.8922 10.5062C30.2375 13.5813 30.4937 17.1047 29.5328 20.3078C29.4687 20.6281 29.6609 21.0125 29.9812 21.0766C30.3656 21.2047 30.6859 20.8844 30.75 20.6281C31.7109 17.1047 31.4547 13.325 30.0453 9.92969C29.9172 9.60938 29.5328 9.48125 29.2125 9.60938C28.8922 9.80156 28.7641 10.1859 28.8922 10.5062ZM34.5938 4.48438C35.6828 4.48438 36.5156 5.31719 36.5156 6.40625C36.5156 6.79063 36.7719 7.04688 37.1562 7.04688C37.5406 7.04688 37.7969 6.79063 37.7969 6.40625C37.7969 5.31719 38.6297 4.48438 39.7188 4.48438C40.1031 4.48438 40.3594 4.22813 40.3594 3.84375C40.3594 3.45937 40.1031 3.20312 39.7188 3.20312C38.6297 3.20312 37.7969 2.37031 37.7969 1.28125C37.7969 0.896875 37.5406 0.640625 37.1562 0.640625C36.7719 0.640625 36.5156 0.896875 36.5156 1.28125C36.5156 2.37031 35.6828 3.20312 34.5938 3.20312C34.2094 3.20312 33.9531 3.45937 33.9531 3.84375C33.9531 4.22813 34.2094 4.48438 34.5938 4.48438ZM37.1562 3.20312C37.3484 3.45937 37.5406 3.65156 37.7969 3.84375C37.5406 4.03594 37.3484 4.22813 37.1562 4.48438C36.9641 4.22813 36.7719 4.03594 36.5156 3.84375C36.7719 3.65156 36.9641 3.45937 37.1562 3.20312ZM6.40625 3.20312C5.31719 3.20312 4.48438 2.37031 4.48438 1.28125C4.48438 0.896875 4.22813 0.640625 3.84375 0.640625C3.45937 0.640625 3.20312 0.896875 3.20312 1.28125C3.20312 2.37031 2.37031 3.20312 1.28125 3.20312C0.896875 3.20312 0.640625 3.45937 0.640625 3.84375C0.640625 4.22813 0.896875 4.48438 1.28125 4.48438C2.37031 4.48438 3.20312 5.31719 3.20312 6.40625C3.20312 6.79063 3.45937 7.04688 3.84375 7.04688C4.22813 7.04688 4.48438 6.79063 4.48438 6.40625C4.48438 5.31719 5.31719 4.48438 6.40625 4.48438C6.79063 4.48438 7.04688 4.22813 7.04688 3.84375C7.04688 3.45937 6.79063 3.20312 6.40625 3.20312ZM3.84375 4.48438C3.65156 4.22813 3.45937 4.03594 3.20312 3.84375C3.45937 3.65156 3.65156 3.45937 3.84375 3.20312C4.03594 3.45937 4.22813 3.65156 4.48438 3.84375C4.22813 4.03594 4.03594 4.22813 3.84375 4.48438ZM39.7188 36.5156C38.6297 36.5156 37.7969 35.6828 37.7969 34.5938C37.7969 34.2094 37.5406 33.9531 37.1562 33.9531C36.7719 33.9531 36.5156 34.2094 36.5156 34.5938C36.5156 35.6828 35.6828 36.5156 34.5938 36.5156C34.2094 36.5156 33.9531 36.7719 33.9531 37.1562C33.9531 37.5406 34.2094 37.7969 34.5938 37.7969C35.6828 37.7969 36.5156 38.6297 36.5156 39.7188C36.5156 40.1031 36.7719 40.3594 37.1562 40.3594C37.5406 40.3594 37.7969 40.1031 37.7969 39.7188C37.7969 38.6297 38.6297 37.7969 39.7188 37.7969C40.1031 37.7969 40.3594 37.5406 40.3594 37.1562C40.3594 36.7719 40.1031 36.5156 39.7188 36.5156ZM37.1562 37.7969C36.9641 37.5406 36.7719 37.3484 36.5156 37.1562C36.7719 36.9641 36.9641 36.7719 37.1562 36.5156C37.3484 36.7719 37.5406 36.9641 37.7969 37.1562C37.5406 37.3484 37.3484 37.5406 37.1562 37.7969ZM6.40625 36.5156C5.31719 36.5156 4.48438 35.6828 4.48438 34.5938C4.48438 34.2094 4.22813 33.9531 3.84375 33.9531C3.45937 33.9531 3.20312 34.2094 3.20312 34.5938C3.20312 35.6828 2.37031 36.5156 1.28125 36.5156C0.896875 36.5156 0.640625 36.7719 0.640625 37.1562C0.640625 37.5406 0.896875 37.7969 1.28125 37.7969C2.37031 37.7969 3.20312 38.6297 3.20312 39.7188C3.20312 40.1031 3.45937 40.3594 3.84375 40.3594C4.22813 40.3594 4.48438 40.1031 4.48438 39.7188C4.48438 38.6297 5.31719 37.7969 6.40625 37.7969C6.79063 37.7969 7.04688 37.5406 7.04688 37.1562C7.04688 36.7719 6.79063 36.5156 6.40625 36.5156ZM3.84375 37.7969C3.65156 37.5406 3.45937 37.3484 3.20312 37.1562C3.45937 36.9641 3.65156 36.7719 3.84375 36.5156C4.03594 36.7719 4.22813 36.9641 4.48438 37.1562C4.22813 37.3484 4.03594 37.5406 3.84375 37.7969Z" fill="white"/>
</g>
<defs>
<clipPath id="clip0_2014_1150">
<rect width="41" height="41" fill="white"/>
</clipPath>
</defs>
</svg>
