<svg width="39" height="39" viewBox="0 0 39 39" fill="none" xmlns="http://www.w3.org/2000/svg">
<path d="M5.54533 20.7187C3.7172 15.2953 3.83908 9.38437 5.91095 4.14375C6.45939 2.74219 7.67814 1.82812 9.01877 1.82812C9.93283 1.82812 10.725 2.37656 11.2125 2.86406C9.87189 3.47344 9.01877 4.3875 8.95783 4.44844C8.71408 4.69219 8.71408 5.05781 8.95783 5.30156C9.20158 5.54531 9.5672 5.54531 9.81095 5.30156C9.99377 5.11875 13.711 1.40156 17.6719 5.17969C19.8047 7.19062 21.511 7.00781 21.5719 7.00781C23.4 6.94687 24.8016 5.72812 25.2891 5.17969L27.2391 2.98594C27.9094 2.25469 28.8235 1.82812 29.6766 1.82812C30.0422 1.82812 30.286 1.58437 30.286 1.21875C30.286 0.853125 30.0422 0.609375 29.6766 0.609375C28.5188 0.609375 27.361 1.09687 26.4469 2.01094C25.6547 1.52344 23.9485 0.609375 21.511 0.609375C18.586 0.609375 16.575 1.95 15.8438 2.49844C15.1735 2.25469 14.0156 2.01094 12.4313 2.37656C11.8828 1.76719 10.6031 0.609375 8.95783 0.609375C7.06877 0.609375 5.42345 1.82812 4.6922 3.65625C2.62033 9.20156 2.43752 15.4172 4.38752 21.0844C4.44845 21.3281 4.81408 21.6328 5.1797 21.45C5.48439 21.3891 5.6672 21.0234 5.54533 20.7187ZM21.45 1.82812C21.45 1.82812 23.8266 1.82812 25.5938 2.925L24.375 4.26562C24.0094 4.69219 22.9125 5.66719 21.5719 5.72812C20.5969 5.72812 19.561 5.24062 18.586 4.26562C18.0985 3.83906 17.611 3.4125 17.1235 3.10781C17.9766 2.62031 19.5 1.82812 21.45 1.82812ZM6.82502 24.4359L6.39845 23.2172C6.27658 22.9125 5.97189 22.7297 5.60627 22.8516C5.30158 22.9734 5.11877 23.2781 5.24064 23.6437L5.6672 24.8625C5.72814 25.1062 6.09377 25.4109 6.45939 25.2281C6.76408 25.1062 6.94689 24.7406 6.82502 24.4359Z" fill="white"/>
<path d="M34.2469 4.38754C34.2469 4.3266 33.6375 2.68129 32.2969 1.58441C32.0531 1.4016 31.6266 1.4016 31.4438 1.64535C31.261 1.8891 31.261 2.31566 31.5047 2.49848C32.6016 3.3516 33.0891 4.75316 33.0891 4.8141C34.9781 9.6891 35.2219 15.1735 33.8203 20.2313L29.4938 35.4657C29.311 36.136 29.0063 36.5016 28.7016 36.7453L29.3719 28.275C29.3719 27.9094 29.1281 27.6657 28.8235 27.6047C28.4578 27.6047 28.2141 27.8485 28.1531 28.1532L27.4219 37.111L25.5938 24.8016C25.2281 22.1203 22.8516 20.0485 20.1094 20.0485C17.3672 20.0485 15.0516 22.0594 14.625 24.8016L12.7969 37.111L11.8219 24.9844C11.6391 22.9735 11.9438 20.9625 12.5531 19.0735C12.736 18.525 12.736 17.9157 12.5531 17.3672C12.3703 16.8797 12.4922 16.2703 12.7969 15.8438C13.2235 15.2344 14.1375 14.9907 14.8078 15.2953C18.1594 16.8188 21.9985 16.7578 25.411 15.2953C26.1422 14.9907 26.9953 15.2344 27.4828 15.8438C27.7875 16.2703 27.9094 16.8188 27.7266 17.3672C27.5438 17.9157 27.5438 18.525 27.7266 19.0735C28.336 20.9625 28.6406 22.9735 28.4578 24.9844C28.4578 25.35 28.7016 25.5938 29.0063 25.6547C29.3719 25.6547 29.6156 25.411 29.6766 25.1063C29.8594 22.9125 29.5547 20.7797 28.8844 18.7078C28.7625 18.4032 28.7625 18.0985 28.8844 17.7938C29.1891 16.8797 29.0672 15.9657 28.4578 15.1735C27.9094 14.3813 27.0563 13.9547 26.0813 13.9547C25.6547 13.9547 25.2891 14.0157 24.9235 14.1985C21.8766 15.5391 18.4031 15.5391 15.3563 14.1985C14.9906 14.0157 14.5641 13.9547 14.1985 13.9547C13.2844 13.9547 12.3703 14.3813 11.8219 15.1735C11.2735 15.9657 11.1516 16.8797 11.3953 17.7938C11.5172 18.0985 11.5172 18.4032 11.3953 18.7078C10.725 20.7797 10.4203 22.9125 10.6031 25.1063L11.5172 36.7453C11.1516 36.5016 10.8469 36.136 10.6641 35.5266L7.73908 26.8735C7.6172 26.5688 7.31252 26.386 6.94689 26.5078C6.6422 26.6297 6.45939 26.9344 6.58127 27.3L9.50627 35.9532C10.1156 37.9032 11.8219 38.3907 12.736 38.3907C12.7969 38.3907 15.4172 38.4516 16.2094 35.5875L18.0375 27.4828C18.2813 26.386 19.1344 25.6547 20.1094 25.6547C21.0844 25.6547 21.9375 26.386 22.1813 27.4828L24.0094 35.5875C24.375 37.2328 25.7156 38.3907 27.2391 38.3907C28.1531 38.4516 29.9813 38.025 30.5906 35.8313L34.9172 20.5969C36.5016 15.2344 36.1969 9.44535 34.2469 4.38754ZM25.2281 35.2828L23.4 27.1782C23.0344 25.5328 21.6938 24.375 20.1094 24.375C18.525 24.375 17.1844 25.5328 16.8188 27.1782L14.9906 35.2828C14.8688 35.8313 14.5641 36.3188 14.1375 36.6844L15.8438 25.0453C16.1485 22.9125 17.9766 21.3282 20.1094 21.3282C22.2422 21.3282 24.0703 22.9125 24.375 25.0453L26.0203 36.6844C25.6547 36.3188 25.35 35.8313 25.2281 35.2828Z" fill="white"/>
<path d="M31.8703 18.8906C31.5656 18.8296 31.2 19.0124 31.1391 19.3781C31.0172 19.9265 30.8953 20.414 30.7735 20.8406C30.7125 21.1453 30.8953 21.5109 31.2 21.5718C31.5656 21.6937 31.8703 21.389 31.9313 21.1453C32.0531 20.6578 32.175 20.1703 32.2969 19.6218C32.4188 19.3171 32.175 18.9515 31.8703 18.8906ZM30.0422 5.42338C31.4438 9.01869 31.9313 12.9796 31.5047 16.8796C31.4438 17.1843 31.6875 17.5499 32.1141 17.5499C32.4188 17.5499 32.6625 17.3062 32.7235 17.0015C33.15 12.9187 32.6016 8.77494 31.1391 4.99682C31.0172 4.69213 30.6516 4.50932 30.3469 4.63119C30.1031 4.75307 29.9203 5.11869 30.0422 5.42338Z" fill="white"/>
</svg>
