<svg width="41" height="41" viewBox="0 0 41 41" fill="none" xmlns="http://www.w3.org/2000/svg">
<g clip-path="url(#clip0_2014_1190)">
<path d="M40.0391 23.1266C39.975 22.8062 39.6547 22.55 39.2703 22.6141C38.95 22.6781 38.6938 22.9984 38.7579 23.3828C39.2063 25.4969 39.1422 27.7391 38.5016 29.7891L37.7329 32.6719C37.7329 32.6719 36.5797 32.9922 36.5157 32.0312C36.4516 31.0063 35.6829 30.1094 34.5938 30.1094C34.0172 30.1094 33.5688 29.7891 33.3125 29.3406C33.1844 29.0203 32.8 28.8922 32.4797 29.0203C32.1594 29.1484 32.0313 29.5328 32.1594 29.8531C32.6079 30.75 33.5688 31.3266 34.5938 31.3266C34.9782 31.3266 35.1704 31.6469 35.2344 31.9672C35.4266 33.7609 37.3485 33.8891 37.3485 33.8891L36.0672 38.3094C35.9391 39.0781 35.3625 39.0781 35.2344 39.0781C35.2344 39.0781 34.5297 39.1422 34.2735 38.3094L33.2485 33.7609C32.9922 32.7359 32.0954 31.9672 31.0704 31.9672C30.0454 31.9672 29.1485 32.6719 28.9563 33.7609L27.9313 38.3094C27.8032 38.7578 27.4829 39.0781 26.9703 39.0781C26.8422 39.0781 26.2016 39.0781 26.0094 38.3734L23.1266 30.0453C22.1016 27.0984 22.1657 23.8313 23.3188 20.9484C23.575 20.3078 24.1516 19.8594 24.7922 19.8594C25.0485 19.8594 25.2407 19.9234 25.4329 20.0516C25.0485 20.2437 24.7282 20.5 24.536 20.7563C24.2797 21.0125 24.2797 21.3969 24.536 21.6531C24.7922 21.9094 25.2407 21.9094 25.4329 21.6531C25.8172 21.1406 26.7782 20.8203 26.7782 20.8203C27.5469 20.5641 28.5079 20.6281 29.4688 21.5891C29.661 21.7813 29.8532 21.9094 30.0454 22.1016V23.5109C30.0454 23.9594 29.9172 24.4078 29.725 24.7922C29.4047 25.4328 29.3407 26.1375 29.5969 26.8422C29.8532 27.5469 30.3016 28.0594 30.9422 28.3797C31.0063 28.4437 31.5188 28.6359 31.775 28.1234C31.9032 27.8031 31.775 27.4187 31.5188 27.2906C31.1985 27.0984 30.9422 26.8422 30.8141 26.4578C30.686 26.0734 30.75 25.7531 30.8782 25.3687C31.1344 24.7922 31.3266 24.1516 31.3266 23.5109V22.6781C31.5188 22.7422 33.1844 22.6781 34.2094 21.5891L35.2985 20.3719C35.6188 20.0516 36.0032 19.8594 36.4516 19.8594C37.5407 19.8594 38.1172 21.3328 38.1172 21.3328C38.2454 21.6531 38.6297 21.8453 38.95 21.7172C39.2703 21.5891 39.4625 21.2047 39.3344 20.8844C39.3344 20.8203 38.5016 18.5781 36.5157 18.5781C35.811 18.5781 35.1704 18.8344 34.6579 19.2828C34.1453 18.9625 33.1203 18.5781 31.9032 18.5781C31.9032 18.5781 29.9813 18.5781 28.636 19.6031C27.9954 19.4109 27.4188 19.4109 26.8422 19.5391C26.4579 19.1547 25.7532 18.5781 24.7922 18.5781C23.6391 18.5781 22.55 19.3469 22.1016 20.5C20.8204 23.7031 20.7563 27.2266 21.9094 30.4937L24.7922 38.8219C25.2407 40.1672 26.4579 40.4234 27.0344 40.3594C28.0594 40.3594 28.9563 39.6547 29.2125 38.5656L30.2375 34.0172C30.3657 33.5687 30.686 33.2484 31.1344 33.2484C31.5828 33.2484 31.9032 33.5687 32.0313 34.0172L33.0563 38.5656C33.5688 40.3594 35.2344 40.3594 35.2985 40.3594C35.9391 40.3594 37.0282 40.0391 37.3485 38.6938L39.7829 30.1734C40.4235 27.8672 40.5516 25.4328 40.0391 23.1266ZM31.9032 19.8594C32.6719 19.8594 33.3125 20.0516 33.761 20.2438C33.761 20.2438 33.0563 21.4609 31.9672 21.4609C30.9422 21.4609 30.1735 20.4359 30.0454 20.3078C30.6219 19.8594 31.9032 19.8594 31.9032 19.8594Z" fill="white"/>
<path d="M24.4719 23.703C24.0875 23.703 23.8313 23.8952 23.7672 24.2796C23.575 26.3937 23.7672 28.5077 24.4719 30.4937C24.536 30.7499 24.9844 31.0062 25.3047 30.878C25.625 30.7499 25.8172 30.4296 25.6891 30.0452C25.0485 28.2515 24.8563 26.2655 25.0485 24.4077C25.1125 24.0874 24.8563 23.7671 24.4719 23.703ZM23.6391 12.1077L24.1516 11.5952L24.6 12.0437C25.1766 12.6202 26.0735 12.7483 26.7782 12.428L27.7391 13.389L26.3938 14.7343C25.625 15.503 25.625 16.7202 26.3938 17.4249C27.1625 18.1937 28.3797 18.1937 29.0844 17.4249C29.3407 17.1687 29.3407 16.7843 29.0844 16.528C28.8282 16.2718 28.4438 16.2718 28.1875 16.528C27.9313 16.7843 27.5469 16.7843 27.2907 16.528C27.0344 16.2718 27.0344 15.8874 27.2907 15.6312L30.9422 11.9796C31.1985 11.7233 31.5829 11.7233 31.8391 11.9796C32.0954 12.2358 32.0954 12.6202 31.8391 12.8765L30.0454 14.6702C29.7891 14.9265 29.7891 15.3108 30.0454 15.5671C30.3016 15.8233 30.686 15.8233 30.9422 15.5671L32.736 13.7733C33.5047 13.0046 33.5047 11.7874 32.736 11.0827C31.9672 10.378 30.75 10.314 30.0454 11.0827L28.7 12.428L27.675 11.5312C27.9954 10.8265 27.8672 9.92959 27.2907 9.35303L26.8422 8.90459L27.3547 8.39209C28.0594 7.6874 28.0594 6.47021 27.3547 5.76553L22.7422 1.15303C22.0375 0.44834 20.8204 0.44834 20.1157 1.15303L16.4 4.86865C15.6954 5.57334 15.6954 6.79053 16.4 7.49521L17.0407 8.13584L15.6313 12.364C15.5032 12.8124 15.2469 13.2608 14.8625 13.5812L6.02192 22.4858C5.76567 22.7421 5.76567 23.1265 6.02192 23.3827C6.27817 23.639 6.66255 23.639 6.9188 23.3827L15.8235 14.478C16.336 13.9655 16.6563 13.389 16.9125 12.7483L18.1297 9.16084L19.8594 10.8905L18.45 15.1187C18.3219 15.5671 18.0657 16.0155 17.6813 16.3358L4.22817 29.7249C3.71567 30.2374 2.94692 30.2374 2.43442 29.7249C1.92192 29.2124 1.92192 28.4437 2.43442 27.9312C2.69067 27.6749 2.69067 27.2905 2.43442 27.0343C2.17817 26.778 1.7938 26.778 1.53755 27.0343C0.512549 28.0593 0.512549 29.6608 1.53755 30.6858C2.56255 31.7108 4.16411 31.7108 5.18911 30.6858L18.5782 17.2968C19.0907 16.7843 19.411 16.2077 19.6672 15.5671L20.8844 11.9796C20.8204 11.9155 22.1657 13.5812 23.6391 12.1077ZM26.3938 10.2499C26.65 10.5062 26.65 10.8905 26.3938 11.1468C26.1375 11.403 25.7532 11.403 25.4969 11.1468L25.0485 10.6983L25.9454 9.80147L26.3938 10.2499ZM17.2969 6.59834C17.1047 6.40615 17.1047 6.02178 17.2969 5.76553L21.0125 2.0499C21.2047 1.85771 21.5891 1.85771 21.8454 2.0499L26.4579 6.6624C26.65 6.85459 26.65 7.23896 26.4579 7.49521L22.7422 11.2108C22.486 11.4671 22.1657 11.4671 21.9094 11.2108L17.2969 6.59834Z" fill="white"/>
<path d="M4.16414 26.1375L5.18914 25.1125C5.44539 24.8562 5.44539 24.4718 5.18914 24.2156C4.93289 23.9593 4.54851 23.9593 4.29226 24.2156L3.26726 25.2406C3.01101 25.4968 3.01101 25.8812 3.26726 26.1375C3.52351 26.3937 3.90789 26.3937 4.16414 26.1375ZM20.9485 5.70151L21.3969 5.25308L21.8454 5.70151C22.1016 5.95776 22.486 5.95776 22.7423 5.70151C22.9985 5.44526 22.9985 5.06089 22.7423 4.80464L21.8454 3.90776C21.5891 3.65151 21.2048 3.65151 20.9485 3.90776L20.0516 4.80464C19.7954 5.06089 19.7954 5.44526 20.0516 5.70151C20.3079 5.95776 20.6923 5.95776 20.9485 5.70151Z" fill="white"/>
</g>
<defs>
<clipPath id="clip0_2014_1190">
<rect width="41" height="41" fill="white"/>
</clipPath>
</defs>
</svg>
