<svg width="46" height="25" viewBox="0 0 46 25" fill="none" xmlns="http://www.w3.org/2000/svg">
<g clip-path="url(#clip0_2014_1207)">
<path d="M38.7406 21.3405C38.3813 21.2686 37.95 21.4842 37.8781 21.8436C37.6625 22.5624 37.1594 22.5624 37.0156 22.5624C37.0156 22.5624 36.2969 22.6342 36.0813 21.7717L35.0031 17.028C34.7156 15.878 33.7813 15.0874 32.7031 15.0874C31.625 15.0874 30.6906 15.878 30.4031 17.028L29.325 21.7717C29.2531 22.2749 28.8219 22.5624 28.3906 22.5624C28.2469 22.5624 27.6719 22.5624 27.4563 21.9155L24.4375 13.1467C24.2219 12.4999 24.0781 11.7811 23.9344 11.0624H25.3C25.7313 11.0624 26.0188 10.7749 26.0188 10.3436C26.0188 9.91236 25.7313 9.62486 25.3 9.62486H23.7188C23.575 7.54048 23.8625 5.52798 24.6531 3.58735C24.9406 2.8686 25.5156 2.43735 26.1625 2.43735C26.3781 2.43735 26.5938 2.50923 26.7375 2.65298C26.3781 2.8686 26.0906 3.1561 25.8031 3.37173C25.5156 3.65923 25.5156 4.09048 25.8031 4.37798C26.0906 4.66548 26.5219 4.66548 26.8094 4.37798C26.8813 4.30611 27.3844 3.80298 28.175 3.51548C28.9656 3.29985 29.9719 3.29985 30.9781 4.3061C31.7688 5.09673 32.5594 5.45611 33.4938 5.45611C33.4938 5.45611 35.075 5.31236 36.0094 4.23423L37.1594 2.94048C37.4469 2.5811 37.8781 2.43735 38.3094 2.43735C38.7406 2.43735 39.0281 2.14985 39.0281 1.7186C39.0281 1.28735 38.7406 0.999854 38.3094 0.999854C37.5906 0.999854 36.9438 1.28735 36.3688 1.7186C35.7938 1.4311 34.7875 0.999854 33.4938 0.999854C31.8406 0.999854 30.6906 1.7186 30.1156 2.07798C29.4688 1.86235 28.8219 1.86235 28.3188 2.0061C27.8875 1.57485 27.1688 0.999854 26.1625 0.999854C23.575 0.999854 23 3.80298 22.9281 4.16235C22.8563 3.94673 22.2813 0.927979 19.6219 0.927979C18.9031 0.927979 18.2563 1.21548 17.6813 1.64673C16.8188 0.927979 14.8063 0.927979 14.8063 0.927979C13.1531 0.927979 12.0031 1.64673 11.4281 2.0061C10.7813 1.79048 10.1344 1.86235 9.63126 1.93423C9.20001 1.50298 8.48126 0.927979 7.47501 0.927979C6.25313 0.927979 5.10313 1.7186 4.60001 2.94048C4.45626 3.29985 4.31251 3.7311 4.24063 4.09048C4.16876 3.87485 3.95313 1.7186 1.58126 0.999854C1.22188 0.856104 0.790631 1.1436 0.718756 1.50298C0.646881 1.86235 0.862506 2.2936 1.22188 2.36548C3.23438 2.8686 3.59376 7.61236 3.52188 9.55298H1.36563C0.934381 9.55298 0.646881 9.84048 0.646881 10.2717C0.646881 10.703 0.934381 10.9905 1.36563 10.9905H3.37813C3.30626 11.5655 3.16251 12.2124 3.01876 12.7874L1.15001 19.4717C1.00626 19.8311 1.29376 20.2624 1.65313 20.3342C1.72501 20.3342 2.44376 20.4061 2.51563 19.8311L4.31251 13.4342C4.31251 13.5061 4.60001 14.2249 5.24688 14.0092C5.60626 13.8655 5.82188 13.5061 5.67813 13.0749C5.46251 12.428 5.31876 11.7811 5.17501 11.0624H10.7094V11.7811C10.7094 13.003 11.6438 13.9374 12.8656 13.9374H14.3031C15.525 13.9374 16.4594 13.003 16.4594 11.7811V11.0624H22.0656C21.9938 11.6374 21.85 12.2842 21.7063 12.8592L19.1188 21.8436C18.9031 22.5624 18.1844 22.5624 18.1844 22.5624C17.7531 22.5624 17.3938 22.203 17.3219 21.7717L16.2438 17.028C15.9563 15.878 15.0219 15.0874 13.9438 15.0874C12.8656 15.0874 11.9313 15.878 11.6438 17.028L10.5656 21.7717C10.4938 22.203 10.0625 22.5624 9.63126 22.5624C9.4875 22.5624 8.91251 22.5624 8.69688 21.9155L6.68438 15.878C6.54063 15.5186 6.18126 15.303 5.75001 15.4467C5.39063 15.5905 5.17501 15.9499 5.31876 16.3811L7.33126 22.4186C7.76251 23.7842 8.98438 24.0717 9.55938 24.0717C9.63126 24.0717 11.5 24.0717 11.9313 22.1311L13.0094 17.3155C13.0813 16.8124 13.4406 16.5249 13.8719 16.5249C14.3031 16.5249 14.6625 16.8842 14.7344 17.3155L15.8125 22.0592C16.0281 23.2092 16.9625 23.9999 18.0406 23.9999C18.6875 24.0717 19.9813 23.7842 20.4125 22.203L23 13.4342C23 13.5061 26.0188 22.3467 26.0188 22.3467C26.45 23.7124 27.6719 23.9999 28.2469 23.9999C28.3188 23.9999 30.1156 23.9999 30.6188 22.0592L31.6969 17.3155C31.7688 16.8124 32.1281 16.5249 32.5594 16.5249C32.9906 16.5249 33.35 16.8842 33.4219 17.3155L34.5 22.0592C34.7156 23.2092 35.65 23.9999 36.7281 23.9999C37.375 24.0717 38.6688 23.7842 39.1 22.203C39.3156 21.7717 39.1 21.4124 38.7406 21.3405ZM33.4219 2.43735C33.4938 2.43735 33.4938 2.43735 33.4219 2.43735C34.2125 2.43735 34.8594 2.65298 35.2906 2.79673C35.4344 2.94048 34.2125 3.94673 33.4219 3.94673C32.6313 3.94673 31.8406 3.4436 31.4813 2.79673C32.0563 2.65298 32.7031 2.43735 33.4219 2.43735ZM14.7344 2.43735C15.525 2.43735 16.1719 2.65298 16.6031 2.79673C16.6031 2.79673 15.8844 3.94673 14.8063 3.94673C13.7281 3.94673 13.0094 2.94048 12.8656 2.79673C13.3688 2.65298 14.0156 2.43735 14.7344 2.43735ZM15.0219 11.7811C15.0219 12.2124 14.7344 12.4999 14.3031 12.4999H12.8656C12.4344 12.4999 12.1469 12.2124 12.1469 11.7811V8.90611C12.1469 8.47486 12.4344 8.18736 12.8656 8.18736H14.3031C14.7344 8.18736 15.0219 8.47486 15.0219 8.90611V11.7811ZM16.4594 9.62486V8.90611C16.4594 7.68423 15.525 6.74986 14.3031 6.74986H12.8656C11.6438 6.74986 10.7094 7.68423 10.7094 8.90611V9.62486H5.03126C4.88751 7.54048 5.17501 5.52798 5.96563 3.58735C6.25313 2.8686 6.82813 2.43735 7.47501 2.43735C7.69063 2.43735 7.90626 2.50923 8.12188 2.65298C7.54688 3.01235 7.18751 3.37173 7.18751 3.37173C6.90001 3.65923 6.90001 4.09048 7.18751 4.37798C7.47501 4.66548 7.90626 4.66548 8.19376 4.37798C8.19376 4.37798 8.69688 3.80298 9.48751 3.58735C10.4938 3.22798 11.4281 3.4436 12.2906 4.3061C13.0813 5.09673 13.9438 5.52798 14.8063 5.45611C16.0281 5.45611 16.8906 4.5936 17.25 4.23423L18.4 2.94048C18.6875 2.5811 19.1188 2.43735 19.55 2.43735C20.6281 2.43735 21.2031 3.94673 21.2031 3.94673C21.9219 5.74361 22.2094 7.68423 22.1375 9.62486H16.4594Z" fill="white"/>
<path d="M45.2094 19.4719L43.0531 13.1469C42.8375 12.5 42.6938 11.7812 42.55 11.0625H44.4906C44.9219 11.0625 45.2094 10.775 45.2094 10.3437C45.2094 9.91248 44.9219 9.62498 44.4906 9.62498H42.4063C42.2625 7.5406 42.6938 3.01247 44.6344 2.43747C44.9938 2.29372 45.2813 2.00622 45.2813 1.64685C45.2094 1.28747 44.85 0.928099 44.4906 0.999974C42.4781 1.5031 41.7594 3.73122 41.6875 4.16247C41.6156 3.94685 41.5438 3.65935 41.4 3.44372C41.2563 3.08435 40.825 2.86872 40.4656 3.01247C40.1063 3.15622 39.8906 3.58747 40.0344 3.94685C40.7531 5.74372 41.0406 7.68435 40.9688 9.62498H35.2188V8.90623C35.2188 7.68435 34.2844 6.74998 33.0625 6.74998H31.625C30.4031 6.74998 29.4688 7.68435 29.4688 8.90623V9.62498H28.2469C27.8156 9.62498 27.5281 9.91248 27.5281 10.3437C27.5281 10.775 27.8156 11.0625 28.2469 11.0625H29.4688V11.7812C29.4688 13.0031 30.4031 13.9375 31.625 13.9375H33.0625C34.2844 13.9375 35.2188 13.0031 35.2188 11.7812V11.0625H40.825C40.7531 11.6375 40.6094 12.2125 40.4656 12.8594L38.5969 19.5437C38.4531 19.9031 38.7406 20.2625 39.1 20.4062C39.6031 20.6219 39.8906 20.2625 39.9625 19.9031L41.7594 13.5062C41.7594 13.5781 43.9156 19.975 43.9156 19.975C43.9875 20.2625 44.275 20.55 44.85 20.4062C45.2094 20.2625 45.3531 19.8312 45.2094 19.4719ZM33.7094 11.7812C33.7094 12.2125 33.4219 12.5 32.9906 12.5H31.5531C31.1219 12.5 30.8344 12.2125 30.8344 11.7812V8.90623C30.8344 8.47498 31.1219 8.18748 31.5531 8.18748H32.9906C33.4219 8.18748 33.7094 8.47498 33.7094 8.90623V11.7812Z" fill="white"/>
</g>
<defs>
<clipPath id="clip0_2014_1207">
<rect width="46" height="23.561" fill="white" transform="translate(0 0.719482)"/>
</clipPath>
</defs>
</svg>
