<svg width="41" height="41" viewBox="0 0 41 41" fill="none" xmlns="http://www.w3.org/2000/svg">
<path d="M36.0031 4.6125C35.939 4.48437 34.5297 0.640625 31.1984 0.640625C29.9172 0.640625 28.7 1.15312 27.8672 2.11406C27.0344 1.60156 25.1765 0.640625 22.614 0.640625C22.614 0.640625 19.0265 0.640625 16.6562 2.62656C15.375 2.17812 14.1578 2.24219 13.1328 2.49844C12.5562 1.85781 11.2109 0.640625 9.48124 0.640625C7.4953 0.640625 5.76561 1.92188 4.99686 3.90781C3.77967 7.11094 3.13905 10.5703 3.20311 14.0938C3.20311 16.0797 3.52342 18.0016 4.22811 19.8594C4.29217 20.1156 4.54842 20.3719 5.06092 20.2437C5.38124 20.1156 5.57342 19.7312 5.4453 19.4109C4.80467 17.7453 4.48436 15.9516 4.48436 14.0938C4.4203 10.6984 4.99686 7.43125 6.21405 4.35625C6.79061 2.88281 8.07186 1.92188 9.5453 1.92188C10.5062 1.92188 11.339 2.49844 11.8515 3.01094C10.3781 3.71562 9.48124 4.6125 9.48124 4.6125C9.22499 4.86875 9.28905 5.25313 9.48124 5.50938C9.80155 5.89375 10.25 5.6375 10.3781 5.50938C10.4422 5.44531 11.5312 4.35625 13.0687 3.84375C14.6062 3.33125 16.5922 3.39531 18.6422 5.38125C18.8984 5.6375 19.2828 5.6375 19.539 5.38125C19.7953 5.125 19.7953 4.74062 19.539 4.48438C19.0265 3.97187 18.514 3.5875 18.0015 3.26719C18.8984 2.69062 20.5 1.92188 22.614 1.92188C22.614 1.92188 25.1765 1.92188 26.9703 3.075L25.689 4.48438C25.2406 4.99687 23.7031 6.47031 21.6531 5.82969C21.3328 5.70156 20.9484 5.89375 20.8203 6.27813C20.6922 6.6625 20.8844 6.98281 21.2687 7.11094C23.9594 7.94375 26.0734 6.02187 26.5859 5.38125L28.6359 3.075C29.2765 2.30625 30.1734 1.92188 31.1344 1.92188C33.5687 1.92188 34.6578 4.99688 34.7219 5.06094C36.5156 8.77656 36.3875 14.0297 36.3875 14.0297C36.6437 18.1297 34.4656 21.6531 34.4656 21.6531C34.2094 22.1016 33.7609 22.4219 33.1844 22.4219H7.55936C7.04686 22.4219 6.53436 22.1016 6.27811 21.6531C6.08592 21.3328 5.76561 21.2688 5.4453 21.3969C5.12499 21.525 4.99686 21.9094 5.18905 22.2297C5.70155 23.1266 6.66249 23.7031 7.68749 23.7031H9.67342C9.92967 24.9844 10.8906 25.9453 12.1719 26.2016V28.7641L11.4672 28.8281C11.0828 28.8281 10.8265 29.1484 10.8906 29.5328C10.8906 29.8531 11.2109 30.1094 11.5312 30.1094L12.1719 30.0453V31.3266L11.4672 31.3906C11.0828 31.3906 10.8265 31.7109 10.8906 32.0953C10.8906 32.4156 11.2109 32.6719 11.5312 32.6719L12.1719 32.6078V33.8891L11.4672 33.9531C11.0828 33.9531 10.8265 34.2734 10.8906 34.6578C10.8906 34.9781 11.2109 35.2344 11.5312 35.2344L12.1719 35.1703V36.4516L11.4672 36.5156C11.0828 36.5156 10.8265 36.8359 10.8906 37.2203C10.8906 37.5406 11.2109 37.7969 11.5312 37.7969L12.3 37.7328C12.4922 38.5656 12.8765 39.2703 13.389 39.9109C13.6453 40.1672 13.9656 40.3594 14.35 40.3594H26.65C27.0344 40.3594 27.3547 40.1672 27.6109 39.9109C28.8281 38.6937 28.8281 36.5156 28.8281 36.5156L29.5328 36.4516C29.9172 36.4516 30.1734 36.1312 30.1094 35.7469C30.1094 35.3625 29.789 35.1063 29.4047 35.1703L28.8281 35.2984V34.0172L29.5328 33.9531C29.9172 33.9531 30.1734 33.6328 30.1094 33.2484C30.1094 32.9281 29.789 32.6078 29.4047 32.6719L28.8281 32.7359V31.4547L29.5328 31.3906C29.9172 31.3906 30.1734 31.0703 30.1094 30.6859C30.1094 30.3656 29.789 30.0453 29.4047 30.1094L28.8281 30.1734V28.8922L29.5328 28.8281C29.9172 28.8281 30.1734 28.5078 30.1094 28.1234C30.1094 27.7391 29.789 27.4828 29.4047 27.5469L28.8281 27.6109V26.2016C30.1094 25.9453 31.0703 24.9844 31.3265 23.7031H33.3125C34.3375 23.7031 35.2344 23.1266 35.7469 22.2297C35.7469 22.2297 37.7969 18.8984 37.7969 14.0297C37.7969 14.0297 37.989 9.09688 36.0031 4.6125ZM27.5469 35.3625L25.7531 35.4906C25.3687 35.4906 25.1125 35.8109 25.1765 36.1953C25.2406 36.9 25.8172 36.7719 25.8812 36.7719L27.5469 36.6437C27.5469 37.5406 27.2265 38.3734 26.65 39.0781H14.35C13.9656 38.6937 13.7734 38.1812 13.5812 37.6688L22.9984 37.0281C23.3828 37.0281 23.639 36.7078 23.575 36.3234C23.575 35.9391 23.2547 35.6828 22.8703 35.7469L13.4531 36.3875V35.1063L27.5469 34.0812V35.3625ZM27.5469 30.2375L18.2578 30.8781C17.8734 30.8781 17.6172 31.1984 17.6812 31.5828C17.6812 31.9031 18.0015 32.1594 18.3219 32.1594L27.5469 31.5188V32.8L13.4531 33.825V32.5437L15.1187 32.4156C15.5031 32.4156 15.7594 32.0953 15.6953 31.7109C15.6953 31.3906 15.375 31.0703 14.9906 31.1344L13.4531 31.2625V29.9812L27.5469 28.9563V30.2375ZM28.1875 24.9844H25.8172C25.4328 24.9844 25.1765 25.2406 25.1765 25.625C25.1765 26.0094 25.4328 26.2656 25.8172 26.2656H27.5469V27.675L13.4531 28.7V26.2656H22.9984C23.3828 26.2656 23.639 26.0094 23.639 25.625C23.639 25.2406 23.3828 24.9844 22.9984 24.9844H12.8125C11.9797 24.9844 11.275 24.4719 11.0187 23.7031H29.9812C29.725 24.4719 29.0203 24.9844 28.1875 24.9844Z" fill="white"/>
<path d="M33.889 15.9516C33.5687 15.8875 33.2484 16.1437 33.1844 16.5281C33.1203 16.9125 33.0562 17.3609 32.9922 17.8734C32.9281 18.1937 33.1844 18.5781 33.5047 18.6422C33.889 18.7062 34.2094 18.45 34.2734 18.1297C34.4015 17.6172 34.4656 17.1047 34.5297 16.6562C34.5297 16.3359 34.2734 16.0156 33.889 15.9516ZM32.8 5.25312C32.6719 4.93281 32.2875 4.74062 31.9672 4.86875C31.6469 4.99687 31.4547 5.38125 31.5828 5.70156C32.5437 8.2 33.1203 10.8266 33.2484 13.5172C33.2484 13.8375 33.5687 14.0937 33.889 14.0937C34.2734 14.0937 34.5297 13.7734 34.5297 13.3891C34.4015 10.6344 33.825 7.87968 32.8 5.25312Z" fill="white"/>
</svg>
