<svg width="48" height="39" viewBox="0 0 48 39" fill="none" xmlns="http://www.w3.org/2000/svg">
<path d="M39.78 13.1305C39.7333 13.1305 39.6859 13.1264 39.6383 13.1177C39.2098 13.0399 38.9256 12.6295 39.0033 12.2011C39.8286 7.65645 38.704 4.66218 35.6609 3.30147C35.6097 3.27856 35.5852 3.26763 35.5423 3.23608C35.4695 3.19383 34.8163 2.83794 33.4064 2.78079C32.0031 2.7238 29.5566 2.95928 25.8716 4.40362C25.2961 4.62922 24.6892 4.74746 24.0678 4.755L24.0583 4.75517C24.0559 4.75522 24.0536 4.75525 24.0514 4.75528C23.3897 4.76291 22.7409 4.64366 22.1235 4.40171C18.4405 2.95869 15.9953 2.72382 14.5926 2.78078C13.1837 2.83804 12.5307 3.19368 12.4578 3.23604C12.4149 3.26761 12.3903 3.27857 12.3391 3.30149C9.29604 4.66218 8.17148 7.65645 8.99671 12.2011C9.07449 12.6295 8.79025 13.0399 8.3618 13.1177C7.93327 13.1954 7.52295 12.9113 7.44516 12.4828C6.4912 7.22917 7.94398 3.56554 11.6469 1.88383C11.901 1.73316 12.7367 1.31409 14.3041 1.2167C15.3224 1.15345 16.4681 1.23562 17.7091 1.46102C19.2324 1.73767 20.9111 2.2331 22.6989 2.93352C23.1257 3.10084 23.5736 3.18342 24.0311 3.17851L24.0391 3.17836C24.0413 3.17831 24.0435 3.17828 24.0458 3.17826C24.477 3.17336 24.8976 3.09168 25.296 2.93549C27.0847 2.23442 28.7642 1.73853 30.2882 1.46155C31.5298 1.23588 32.676 1.15347 33.6948 1.21666C35.263 1.31391 36.099 1.73312 36.3531 1.88383C40.056 3.56556 41.5088 7.22918 40.5549 12.4828C40.4857 12.8636 40.1538 13.1305 39.78 13.1305ZM12.4645 3.23105C12.4645 3.23108 12.4645 3.23108 12.4645 3.23105V3.23105ZM32.0973 37.804C31.6446 37.804 31.1963 37.7102 30.7848 37.5277C30.2445 37.2881 29.7777 36.8983 29.4347 36.4006C28.2115 34.6253 27.2979 31.6566 26.7193 27.5769C26.7145 27.5428 26.712 27.516 26.7116 27.4819C26.7103 27.4459 26.6853 26.8786 26.4241 26.2156C26.0855 25.3563 25.5165 24.7307 24.7329 24.3562C24.5186 24.2538 24.274 24.1978 24.0257 24.1944L24.0213 24.1943C24.0141 24.1942 24.0069 24.1942 23.9998 24.1942C23.7382 24.1942 23.4775 24.2538 23.2458 24.3666C22.456 24.7506 21.8872 25.391 21.5549 26.2701C21.3045 26.9324 21.2885 27.4745 21.2884 27.4798C21.2879 27.5123 21.2853 27.5447 21.2807 27.5769C20.7022 31.6565 19.7885 34.6253 18.5652 36.4006C18.2224 36.8983 17.7555 37.2881 17.2152 37.5277C16.707 37.7531 16.1426 37.8433 15.5831 37.7884C15.0234 37.7335 14.487 37.5353 14.032 37.2153C13.5483 36.8751 13.1658 36.4019 12.926 35.8468C11.7317 33.0807 10.8927 29.8622 10.4324 26.2804C9.99673 22.8899 9.30748 19.4848 8.38372 16.1595C8.26717 15.7399 8.5128 15.3053 8.93236 15.1887C9.35192 15.0722 9.78653 15.3178 9.90311 15.7374C10.8469 19.135 11.5513 22.6146 11.9964 26.0795C12.4379 29.5151 13.2378 32.5909 14.3737 35.2216C14.6177 35.7863 15.1273 36.1592 15.737 36.219C16.3462 36.2788 16.918 36.0121 17.2667 35.506C18.3464 33.939 19.1696 31.2108 19.7136 27.3963C19.723 27.1914 19.7762 26.5156 20.0798 25.7124C20.5525 24.4621 21.4088 23.5064 22.556 22.9486C23.0011 22.7319 23.5005 22.6173 23.9998 22.6173C24.0162 22.6173 24.033 22.6174 24.0497 22.6177C24.5236 22.6246 24.995 22.7338 25.4128 22.9334C26.5726 23.4877 27.4382 24.445 27.9161 25.7019C28.2233 26.5097 28.277 27.1904 28.2864 27.3963C28.8304 31.2108 29.6536 33.939 30.7333 35.5059C31.082 36.0121 31.6538 36.2787 32.263 36.219C32.8727 36.1592 33.3824 35.7863 33.6264 35.2215C34.7623 32.5908 35.5621 29.5149 36.0036 26.0794C36.4488 22.6147 37.1531 19.1351 38.0969 15.7374C38.2134 15.3179 38.6479 15.0722 39.0676 15.1887C39.4872 15.3053 39.7328 15.7399 39.6163 16.1595C38.6925 19.4849 38.0033 22.8901 37.5676 26.2804C37.1073 29.8621 36.2684 33.0806 35.0741 35.8467C34.8342 36.4019 34.4518 36.8751 33.968 37.2153C33.513 37.5353 32.9766 37.7335 32.4169 37.7884C32.3104 37.7988 32.2037 37.804 32.0973 37.804Z" fill="white"/>
<path d="M30.7195 19.0903H17.2804C16.475 19.0903 15.8197 18.435 15.8197 17.6295V10.6607C15.8197 9.85526 16.475 9.19995 17.2804 9.19995H30.7195C31.525 9.19995 32.1803 9.85524 32.1803 10.6607V17.6295C32.1803 18.435 31.525 19.0903 30.7195 19.0903ZM17.3966 17.5133H30.6034V10.7769H17.3966V17.5133Z" fill="white"/>
<path d="M16.6082 16.737H3.62769C2.19869 16.737 1.03607 15.5744 1.03607 14.1453C1.03607 12.7163 2.19869 11.5537 3.62769 11.5537H16.6082C17.0436 11.5537 17.3966 11.9067 17.3966 12.3422C17.3966 12.7776 17.0436 13.1306 16.6082 13.1306H3.62769C3.06818 13.1306 2.61299 13.5858 2.61299 14.1453C2.61299 14.7049 3.06817 15.16 3.62769 15.16H16.6082C17.0436 15.16 17.3966 15.5131 17.3966 15.9485C17.3967 16.384 17.0436 16.737 16.6082 16.737ZM44.3724 16.737H31.3919C30.9564 16.737 30.6034 16.3839 30.6034 15.9485C30.6034 15.513 30.9564 15.16 31.3919 15.16H44.3724C44.9319 15.16 45.3871 14.7049 45.3871 14.1453C45.3871 13.5858 44.9319 13.1306 44.3724 13.1306H31.3919C30.9564 13.1306 30.6034 12.7776 30.6034 12.3422C30.6034 11.9067 30.9564 11.5537 31.3919 11.5537H44.3724C45.8014 11.5537 46.964 12.7163 46.964 14.1453C46.964 15.5743 45.8014 16.737 44.3724 16.737ZM19.5211 16.1692C19.0856 16.1692 18.7327 15.8162 18.7327 15.3808V12.9099C18.7327 12.4745 19.0857 12.1215 19.5211 12.1215C19.9566 12.1215 20.3096 12.4745 20.3096 12.9099V15.3808C20.3096 15.8162 19.9566 16.1692 19.5211 16.1692ZM22.507 16.1692C22.0716 16.1692 21.7186 15.8162 21.7186 15.3808V12.9099C21.7186 12.4745 22.0716 12.1215 22.507 12.1215C22.9425 12.1215 23.2955 12.4745 23.2955 12.9099V15.3808C23.2955 15.8162 22.9425 16.1692 22.507 16.1692ZM25.493 16.1692C25.0575 16.1692 24.7045 15.8162 24.7045 15.3808V12.9099C24.7045 12.4745 25.0575 12.1215 25.493 12.1215C25.9285 12.1215 26.2815 12.4745 26.2815 12.9099V15.3808C26.2815 15.8162 25.9285 16.1692 25.493 16.1692ZM28.4789 16.1692C28.0435 16.1692 27.6905 15.8162 27.6905 15.3808V12.9099C27.6905 12.4745 28.0435 12.1215 28.4789 12.1215C28.9144 12.1215 29.2674 12.4745 29.2674 12.9099V15.3808C29.2674 15.8162 28.9144 16.1692 28.4789 16.1692Z" fill="white"/>
</svg>
