<svg width="24" height="24" viewBox="0 0 24 24" fill="none" xmlns="http://www.w3.org/2000/svg">
<rect width="24" height="24" rx="12" fill="white" fill-opacity="0.8"/>
<path d="M7.58099 4.70711C7.19047 4.31658 6.5573 4.31658 6.16678 4.70711L4.70711 6.16678C4.31658 6.5573 4.31658 7.19047 4.70711 7.58099L5.46752 8.3414L8.4002 11.3235C8.78516 11.715 8.78254 12.3436 8.39432 12.7318L5.46752 15.6586L4.72979 16.3656C4.32801 16.7506 4.31785 17.3896 4.70718 17.7872L6.16686 19.2779C6.55613 19.6755 7.19504 19.6788 7.58847 19.2854L8.3414 18.5325L11.3175 15.5564C11.7104 15.1635 12.3481 15.1662 12.7376 15.5623L15.6586 18.5325L16.3582 19.2625C16.7461 19.6672 17.3909 19.6741 17.7873 19.2777L19.2777 17.7873C19.6741 17.3909 19.6672 16.7461 19.2625 16.3582L18.5325 15.6586L15.5623 12.7376C15.1662 12.3481 15.1635 11.7104 15.5564 11.3175L18.5325 8.3414L19.2854 7.58847C19.6788 7.19504 19.6755 6.55613 19.2779 6.16686L17.7872 4.70719C17.3896 4.31785 16.7506 4.32801 16.3656 4.72979L15.6586 5.46752L12.7318 8.39432C12.3436 8.78254 11.715 8.78516 11.3235 8.4002L8.3414 5.46752L7.58099 4.70711Z" fill="black"/>
</svg>
