<svg width="41" height="41" viewBox="0 0 41 41" fill="none" xmlns="http://www.w3.org/2000/svg">
<g clip-path="url(#clip0_2014_1175)">
<path d="M38.8219 32.3516C38.5015 32.2875 38.1172 32.4797 38.0531 32.8L36.5156 38.4375C36.3234 39.2062 35.8109 39.0781 35.8109 39.0781C35.4906 39.0781 35.2344 38.7578 35.1062 38.3734L34.2094 34.1453C34.0172 33.1203 33.1844 32.4156 32.2875 32.4156C31.3265 32.4156 30.5578 33.1203 30.3656 34.1453L29.4687 38.3734C29.4047 38.7578 29.0844 39.0781 28.764 39.0781C28.764 39.0781 28.2515 39.0781 28.0594 38.5016L25.7531 31.2625C25.625 30.9422 25.3047 30.75 24.9203 30.8141C24.6 30.9422 24.4078 31.2625 24.4719 31.6469L26.7781 38.8859C27.2265 40.3594 28.8281 40.3594 28.8281 40.3594C29.789 40.3594 30.5578 39.6547 30.75 38.6297L31.6469 34.3375C31.7109 33.9531 32.0312 33.6328 32.2875 33.6328C32.5437 33.6328 32.864 33.9531 32.9922 34.3375L33.889 38.5656C34.0812 39.5906 34.85 40.2953 35.8109 40.2953C36.3875 40.3594 37.4765 40.0391 37.7969 38.6938L39.2703 33.1203C39.3344 32.8 39.1422 32.4797 38.8219 32.3516ZM39.5265 22.0375C39.5265 21.9734 38.7578 19.8594 36.964 19.8594C36.3875 19.8594 35.8109 20.1156 35.3625 20.5C34.4656 19.9875 32.9922 19.8594 32.9922 19.8594C31.6469 19.8594 30.6859 20.4359 30.1734 20.8203C29.5328 20.6922 28.8922 20.6922 28.7 20.7563C28.3797 20.3719 27.739 19.8594 26.9062 19.8594C25.8172 19.8594 24.9203 20.5641 24.4719 21.7172C24.1515 22.55 23.9594 23.3828 23.8312 24.2797C23.7672 24.6 24.0234 24.9203 24.3437 24.9844C24.664 25.1125 25.0484 24.7922 25.0484 24.4719C25.1765 23.7031 25.3687 22.8703 25.625 22.1656C25.8172 21.5891 26.3297 21.2047 26.8422 21.2047C27.0344 21.2047 27.1625 21.2688 27.3547 21.3969C26.9062 21.7172 26.5859 22.0375 26.5859 22.0375C26.3297 22.2938 26.3937 22.6781 26.65 22.9344C26.9062 23.1906 27.2906 23.1266 27.5469 22.8703C27.5469 22.8703 28.3156 22.0375 29.2765 22.0375C29.8531 22.0375 30.3656 22.2937 30.8781 22.8062C31.5187 23.5109 32.2234 23.8953 33.0562 23.8953C34.0812 23.8953 34.85 23.1266 35.1062 22.8062L36.0672 21.6531C36.3234 21.3328 36.6437 21.2047 36.964 21.2047C37.7969 21.2047 38.3094 22.55 38.3094 22.55C39.2062 25.0484 39.3344 27.8672 38.6297 30.4937C38.5656 30.8141 38.7578 31.1344 39.0781 31.2625C39.4625 31.3906 39.7828 31.0703 39.8469 30.8141C40.6156 27.8672 40.4875 24.7922 39.5265 22.0375ZM34.1453 21.9094C34.0172 22.0375 33.5687 22.55 33.0562 22.55C32.6719 22.55 32.2875 22.3578 31.839 21.9094L31.4547 21.525C31.839 21.3328 32.3515 21.1406 32.9922 21.1406C32.9922 21.1406 33.889 21.1406 34.4656 21.4609L34.1453 21.9094Z" fill="white"/>
<path d="M36.5157 31.1984C36.9 31.3265 37.2203 31.0062 37.2844 30.75C37.861 28.6359 37.925 26.3937 37.4766 24.2156C37.4125 23.8953 37.0922 23.639 36.7078 23.7031C36.3875 23.7672 36.1313 24.0875 36.1953 24.4718C36.5797 26.4578 36.5157 28.5078 36.0032 30.4297C36.0032 30.75 36.1953 31.1343 36.5157 31.1984ZM26.5219 28.764C26.586 28.5078 26.4578 28.2515 26.2016 28.1234C24.3438 27.0343 22.9985 25.3047 22.4219 23.1906L22.1016 22.0375H23.2547C23.6391 22.0375 23.8953 21.7812 23.8953 21.3968C23.8953 21.0125 23.6391 20.7562 23.2547 20.7562H21.7813L21.0766 18.0015C20.9485 17.6172 20.7563 17.2328 20.5641 16.9125H24.3438C26.0735 16.9125 27.7391 17.9375 28.5078 19.539C28.636 19.7953 28.9563 19.9875 29.3407 19.8593C29.661 19.7312 29.7891 19.3468 29.661 19.0265C28.7 16.9765 26.586 15.6953 24.3438 15.6953H19.8594L18.3219 10.25C17.425 6.98278 16.0797 3.84371 14.35 0.960901C14.1578 0.640588 13.7735 0.576526 13.4532 0.704651C13.1328 0.896838 13.0688 1.28121 13.261 1.60153C14.9266 4.42028 16.2078 7.43121 17.0407 10.5703L18.386 15.6312C17.9375 15.5672 17.4891 15.5672 17.0407 15.6953C16.5922 15.8234 16.2078 16.0156 15.8875 16.2718L14.5422 11.2109C13.5172 7.49528 11.9157 3.97184 9.67347 0.896838C9.48128 0.576526 9.09691 0.512463 8.77659 0.768713C8.45628 0.960901 8.39222 1.34528 8.64847 1.66559C10.7625 4.67653 12.3641 8.00778 13.325 11.5953L14.6063 16.2718H9.73753C6.91878 16.2718 4.16409 15.8875 1.47347 15.1828C1.15316 15.1187 0.768781 15.3109 0.704718 15.6312C0.640656 15.9515 0.832843 16.3359 1.15316 16.4C3.97191 17.1687 6.85472 17.5531 9.80159 17.5531H14.9907C14.7344 18.6422 14.7344 19.2828 14.9907 20.1156H9.73753C9.35316 20.1156 9.09691 20.3718 9.09691 20.7562C9.09691 21.1406 9.35316 21.3968 9.73753 21.3968H15.311L16.4641 25.7531C18.0016 31.1343 23.1266 30.0453 23.6391 29.9172L26.0094 29.2765C26.2657 29.2125 26.4578 29.0203 26.5219 28.764ZM23.3188 28.7C20.8844 29.3406 18.386 27.8672 17.6813 25.4328L16.0157 19.3468C15.7594 18.3218 16.336 17.2968 17.361 16.9765C18.7703 16.5922 19.6032 17.8093 19.7313 18.3218L21.1407 23.5109C21.6532 25.4328 22.7422 27.1625 24.3438 28.3797L23.3188 28.7Z" fill="white"/>
<path d="M7.62344 20.0516C5.50938 19.9235 3.45938 19.6031 1.40938 19.0906C1.08907 19.0266 0.704694 19.2188 0.640631 19.5391C0.576569 19.8594 0.768756 20.2438 1.08907 20.3078C3.20313 20.8203 5.31719 21.1406 7.49532 21.2688C7.49532 21.2688 8.07188 21.2688 8.20001 20.6922C8.26407 20.3719 8.00782 20.0516 7.62344 20.0516Z" fill="white"/>
<path d="M17.9375 19.4749C18.2913 19.4749 18.5781 19.188 18.5781 18.8342C18.5781 18.4804 18.2913 18.1936 17.9375 18.1936C17.5837 18.1936 17.2969 18.4804 17.2969 18.8342C17.2969 19.188 17.5837 19.4749 17.9375 19.4749Z" fill="white"/>
</g>
<defs>
<clipPath id="clip0_2014_1175">
<rect width="41" height="41" fill="white"/>
</clipPath>
</defs>
</svg>
