<svg width="174" height="33" viewBox="0 0 174 33" fill="none" xmlns="http://www.w3.org/2000/svg">
<path d="M19.9138 0L12.9678 6.06122L5.88428 12.2642L12.8302 23.8904L18.332 33L22.4583 24.8829V18.5027L26.0001 5.60043L19.9138 0Z" fill="white"/>
<path d="M3.53188 18.9484V18.8911L3.51892 18.8353L0.552152 6.05765L6.27463 0.682101L18.7975 12.1616L7.31645 31.9811L3.53188 25.0657V18.9484Z" fill="#1E1E1E" stroke="white"/>
<path d="M56.364 2.692H45.024V12.394H54.306V12.772H45.024V30.58H57.204V31H45.024H43.26V2.272H44.142H56.364V2.692ZM71.8873 31H70.1233V2.692H61.8073V2.272H80.2033V2.692H71.8873V31ZM97.9292 2.692H86.5892V12.394H95.8712V12.772H86.5892V30.58H98.7692V31H86.5892H84.8252V2.272H85.7072H97.9292V2.692ZM105.136 2.314H111.478H112.948C117.863 2.314 121.726 6.094 121.726 10.924C121.726 14.788 119.249 17.938 115.594 18.946L120.172 31.042H118.283L113.83 19.24C113.83 19.24 113.452 19.282 112.948 19.282H111.478H105.136V31.042H103.372V2.314H105.136ZM111.478 2.734H105.136V18.862H111.478C117.191 18.862 119.878 15.46 119.878 10.924C119.878 6.304 116.182 2.734 111.478 2.734ZM139.453 2.692H128.113V12.394H137.395V12.772H128.113V30.58H140.293V31H128.113H126.349V2.272H127.231H139.453V2.692ZM157.19 31C148.202 31 141.944 24.364 141.944 16.468C141.944 8.614 148.202 1.978 157.19 1.978C166.178 1.978 172.436 8.614 172.436 16.468C172.436 24.364 166.178 31 157.19 31ZM157.19 2.356C149.63 2.356 143.666 8.908 143.666 16.468C143.666 24.07 149.714 30.622 157.19 30.622C164.708 30.622 170.714 24.07 170.714 16.468C170.714 8.908 164.75 2.356 157.19 2.356Z" fill="white"/>
</svg>
