<svg width="60" height="77" viewBox="0 0 60 77" fill="none" xmlns="http://www.w3.org/2000/svg">
<path d="M45.8469 1L29.6948 14.9592L16 29.5L29.375 56.0204L42.1687 77L51.764 58.3061V43.6122L60 13.898L45.8469 1Z" fill="black"/>
<path d="M51.2822 43.4787L51.264 43.5442V43.6122V58.1853L42.1312 75.9781L29.8124 55.7773L16.6042 29.5877L30.0412 15.3207L45.8381 1.66846L59.4361 14.0605L51.2822 43.4787Z" stroke="white" stroke-opacity="0.5"/>
<path d="M45 27.7849L14.5213 0L0 13.5656L7.02128 43.6387V58.0215L16.9149 76L45 27.7849Z" fill="black"/>
<path d="M7.52128 43.6387V43.5811L7.50818 43.525L0.552658 13.7335L14.5254 0.680361L44.3646 27.8823L16.9273 74.9854L7.52128 57.893V43.6387Z" stroke="white" stroke-opacity="0.5"/>
</svg>
