<svg width="170" height="49" viewBox="0 0 170 49" fill="none" xmlns="http://www.w3.org/2000/svg">
<path d="M21.9138 2L14.9678 8.06122L7.88428 14.2642L14.8302 25.8904L20.332 35L24.4583 26.8829V20.5027L28.0001 7.60043L21.9138 2Z" fill="#1E1E1E"/>
<path d="M21.8642 14.3151L22.0656 13.9675L21.7694 13.6959L8.60834 1.63143L8.26632 1.3179L7.92814 1.63557L1.65767 7.5259L1.44785 7.72299L1.51296 8.00341L4.53188 21.0057V27.1935V27.3214L4.59326 27.4336L8.86546 35.24L9.29169 36.0189L9.73672 35.2506L21.8642 14.3151Z" fill="#1E1E1E" stroke="white"/>
<path d="M52.364 4.692H41.024V14.394H50.306V14.772H41.024V32.58H53.204V33H41.024H39.26V4.272H40.142H52.364V4.692ZM67.8873 33H66.1233V4.692H57.8073V4.272H76.2033V4.692H67.8873V33ZM93.9292 4.692H82.5892V14.394H91.8712V14.772H82.5892V32.58H94.7692V33H82.5892H80.8252V4.272H81.7072H93.9292V4.692ZM101.136 4.314H107.478H108.948C113.863 4.314 117.726 8.094 117.726 12.924C117.726 16.788 115.249 19.938 111.594 20.946L116.172 33.042H114.283L109.83 21.24C109.83 21.24 109.452 21.282 108.948 21.282H107.478H101.136V33.042H99.3725V4.314H101.136ZM107.478 4.734H101.136V20.862H107.478C113.191 20.862 115.878 17.46 115.878 12.924C115.878 8.304 112.182 4.734 107.478 4.734ZM135.453 4.692H124.113V14.394H133.395V14.772H124.113V32.58H136.293V33H124.113H122.349V4.272H123.231H135.453V4.692ZM153.19 33C144.202 33 137.944 26.364 137.944 18.468C137.944 10.614 144.202 3.978 153.19 3.978C162.178 3.978 168.436 10.614 168.436 18.468C168.436 26.364 162.178 33 153.19 33ZM153.19 4.356C145.63 4.356 139.666 10.908 139.666 18.468C139.666 26.07 145.714 32.622 153.19 32.622C160.708 32.622 166.714 26.07 166.714 18.468C166.714 10.908 160.75 4.356 153.19 4.356Z" fill="#1E1E1E"/>
<path d="M36.715 40H36.0719V43.5866L36.0512 43.6156C35.8698 43.2658 35.6103 42.9922 35.2712 42.7964C34.9322 42.5989 34.5788 42.501 34.2095 42.501C33.8991 42.501 33.6189 42.5626 33.3674 42.6859C33.1159 42.8091 32.9073 42.9722 32.7418 43.177C32.5762 43.3818 32.4362 43.6229 32.3231 43.9038C32.2101 44.1829 32.1273 44.4765 32.0764 44.7791C32.0255 45.0836 32 45.399 32 45.7234C32 46.0405 32.0239 46.3523 32.0732 46.6567C32.1226 46.9594 32.2038 47.2548 32.32 47.5411C32.4362 47.8275 32.5747 48.0758 32.7418 48.2896C32.9073 48.5017 33.1175 48.672 33.3706 48.8025C33.6237 48.9312 33.9038 48.9965 34.2111 48.9965C34.5836 48.9965 34.929 48.8986 35.2473 48.701C35.5641 48.5053 35.8331 48.2244 36.0528 47.8583L36.0735 47.9054L36.1101 48.8116H36.7755C36.7373 48.0486 36.7182 47.5901 36.7182 47.436V40H36.715ZM35.9955 46.4175C35.9589 46.6712 35.8968 46.9177 35.8077 47.1569C35.7185 47.3962 35.6055 47.5991 35.4702 47.7677C35.3349 47.9362 35.1598 48.0703 34.9465 48.1737C34.7332 48.2751 34.4912 48.3259 34.219 48.3259C33.9818 48.3259 33.7717 48.2679 33.5887 48.1537C33.4056 48.0377 33.2591 47.8909 33.1493 47.7133C33.0395 47.5339 32.9487 47.3219 32.8803 47.0754C32.8102 46.8289 32.7625 46.5915 32.737 46.3595C32.7115 46.1293 32.6972 45.8901 32.6972 45.6436C32.6972 45.3971 32.7131 45.1615 32.7466 44.935C32.78 44.7085 32.8357 44.4874 32.9169 44.2699C32.9965 44.0542 33.0984 43.8657 33.2209 43.7062C33.3435 43.5467 33.4979 43.4199 33.6873 43.322C33.8752 43.2241 34.0869 43.1752 34.3209 43.1752C34.6249 43.1752 34.8908 43.2423 35.1184 43.3746C35.346 43.5087 35.5275 43.6917 35.6596 43.9219C35.7918 44.1557 35.8904 44.4112 35.9557 44.6903C36.0194 44.9694 36.0528 45.2739 36.0528 45.5983C36.0496 45.8901 36.0321 46.162 35.9955 46.4175Z" fill="#0C8CE9"/>
<path d="M47.0496 44.5762C46.9605 44.1757 46.822 43.8151 46.6342 43.4979C46.4463 43.1807 46.19 42.9343 45.8669 42.7621C45.5438 42.5881 45.1649 42.5029 44.7287 42.5029C44.3419 42.5029 43.9933 42.5935 43.6813 42.7748C43.3709 42.956 43.1194 43.1989 42.9252 43.5051C42.731 43.8114 42.5829 44.1558 42.4811 44.54C42.3776 44.9224 42.3267 45.3266 42.3267 45.7525C42.3267 46.182 42.376 46.5861 42.4731 46.9685C42.5702 47.3491 42.7135 47.6935 42.9029 48.0016C43.0907 48.3097 43.3391 48.5525 43.6463 48.7319C43.9535 48.9114 44.3005 49.0002 44.6874 49.0002C45.34 49.0002 45.8669 48.8244 46.2696 48.4764C46.6724 48.1284 46.9557 47.5884 47.1197 46.8616H46.4447C46.3636 47.2875 46.1789 47.6373 45.8908 47.9128C45.6011 48.1882 45.2684 48.326 44.8911 48.326C44.5696 48.326 44.2894 48.2625 44.049 48.1393C43.8087 48.0143 43.616 47.8385 43.4712 47.6155C43.3263 47.3908 43.2181 47.1371 43.1465 46.8562C43.0748 46.5734 43.035 46.2635 43.0287 45.9264H47.1834C47.1834 45.4262 47.1388 44.9768 47.0496 44.5762ZM43.0494 45.2486C43.0939 44.6687 43.2643 44.1775 43.5572 43.777C43.8501 43.3765 44.2448 43.1753 44.7399 43.1753C45.2732 43.1753 45.6886 43.3656 45.9847 43.7444C46.2808 44.125 46.4479 44.6252 46.4877 45.2486H43.0494Z" fill="#0C8CE9"/>
<path d="M57.1101 44.183C57.0799 44.0126 57.0401 43.8531 56.9875 43.7063C56.935 43.5595 56.8618 43.4091 56.7647 43.2569C56.6692 43.1046 56.5562 42.9741 56.4272 42.8672C56.2983 42.7603 56.1343 42.6733 55.9385 42.6044C55.7411 42.5374 55.5231 42.5029 55.2811 42.5029C54.9245 42.5029 54.603 42.5954 54.3133 42.7838C54.0235 42.9705 53.7864 43.2478 53.6017 43.6175L53.581 43.5885L53.5492 42.6896H52.8838C52.9188 43.3837 52.9363 43.8441 52.9363 44.0652V48.8135H53.5794V45.2867C53.5794 44.9061 53.632 44.5599 53.7386 44.25C53.8453 43.9401 54.0172 43.6846 54.256 43.4816C54.4947 43.2786 54.7829 43.1771 55.1219 43.1771C55.5613 43.1771 55.9067 43.3257 56.1582 43.6211C56.4097 43.9166 56.5355 44.3298 56.5355 44.8572V48.8135H57.1786V44.9822C57.1786 44.859 57.1738 44.7375 57.1658 44.6179C57.1595 44.4983 57.1404 44.3533 57.1101 44.183Z" fill="#0C8CE9"/>
<path d="M64.3259 47.4595V43.36H65.5452V42.6876H64.3259V41.0674L63.6828 41.3827V42.6876H62.6099V43.36H63.6828V47.1786C63.6828 47.2058 63.6828 47.2457 63.6828 47.2982C63.6796 47.378 63.6796 47.4577 63.6828 47.5393C63.6859 47.6208 63.6891 47.7024 63.6907 47.7821C63.6923 47.8637 63.7003 47.9416 63.7146 48.0177C63.7289 48.0938 63.7448 48.1681 63.7624 48.2406C63.7799 48.3131 63.8053 48.382 63.8404 48.4454C63.8754 48.5089 63.9136 48.5687 63.9581 48.6267C64.0011 48.6847 64.0552 48.7354 64.1205 48.7789C64.1842 48.8224 64.2574 48.8605 64.337 48.8913C64.4166 48.9239 64.5121 48.9474 64.6203 48.9656C64.7286 48.9837 64.8448 48.9928 64.9706 48.9928C65.1488 48.9928 65.3669 48.9547 65.6248 48.8804V48.2497C65.4847 48.2968 65.2985 48.3204 65.0645 48.3204C64.5726 48.324 64.3259 48.0358 64.3259 47.4595Z" fill="#0C8CE9"/>
<path d="M74.7998 44.5291C74.7998 43.8422 74.6343 43.333 74.3048 43.0013C73.9753 42.6697 73.5041 42.5029 72.8944 42.5029C72.6286 42.5029 72.3866 42.5355 72.1638 42.599C71.9425 42.6624 71.7419 42.7621 71.562 42.8962C71.3822 43.0303 71.2325 43.2116 71.1147 43.4381C70.9953 43.6646 70.9173 43.931 70.8791 44.2373H71.5652C71.6353 43.5305 72.0746 43.1771 72.8833 43.1771C73.2908 43.1771 73.606 43.2768 73.8256 43.478C74.0453 43.6791 74.1551 44.0162 74.1551 44.4929V45.0529C74.0469 45.0601 73.797 45.0656 73.4038 45.0656C73.0106 45.0656 72.6875 45.0837 72.4328 45.12C72.1781 45.1562 71.9425 45.2269 71.726 45.3338C71.3949 45.4879 71.1307 45.7216 70.9365 46.0316C70.7407 46.3415 70.6436 46.6985 70.6436 47.1045C70.6436 47.688 70.8139 48.1502 71.1545 48.4891C71.4952 48.8298 71.9218 48.9984 72.4344 48.9984C72.7941 48.9984 73.138 48.8987 73.4659 48.7011C73.7938 48.5018 74.0103 48.268 74.1154 47.9979L74.1472 47.9091H74.1727L74.1934 48.8153H74.8587C74.8205 48.0523 74.8014 47.5938 74.8014 47.4397V44.5291H74.7998ZM74.1504 46.4919C74.1329 46.7275 74.0899 46.9613 74.0198 47.1915C73.9498 47.4216 73.8559 47.6192 73.7397 47.7805C73.6219 47.9436 73.4627 48.0741 73.2605 48.1737C73.0584 48.2734 72.8212 48.3224 72.549 48.3224C72.2004 48.3224 71.9107 48.2172 71.683 48.007C71.4538 47.7968 71.3408 47.4941 71.3408 47.1008C71.3408 46.9142 71.371 46.7474 71.4299 46.6006C71.4888 46.4538 71.562 46.3342 71.6496 46.24C71.7371 46.1457 71.8518 46.066 71.995 45.9989C72.1383 45.9319 72.2736 45.8811 72.4009 45.8503C72.5283 45.8177 72.6843 45.7923 72.8689 45.7724C73.0536 45.7525 73.2064 45.7416 73.3274 45.7398C73.4484 45.738 73.598 45.7361 73.7779 45.7325C73.9578 45.7307 74.0835 45.7271 74.1567 45.7235C74.1695 46.0007 74.1679 46.2545 74.1504 46.4919Z" fill="#0C8CE9"/>
<path d="M81.4582 40H80.8135V48.8116H81.4582V40Z" fill="#0C8CE9"/>
<path d="M95.8977 43.5268C96.1428 43.293 96.4246 43.1752 96.7429 43.1752C97.671 43.1752 98.1613 43.6373 98.2138 44.5634H98.9094C98.8855 43.9273 98.6786 43.4253 98.2886 43.0556C97.9002 42.6858 97.4211 42.501 96.8528 42.501C96.466 42.501 96.1173 42.5916 95.8069 42.7728C95.4965 42.9541 95.2434 43.1969 95.0508 43.5032C94.8566 43.8095 94.7086 44.1538 94.6051 44.538C94.5016 44.9205 94.4507 45.3246 94.4507 45.7505C94.4507 46.18 94.5 46.5842 94.5971 46.9666C94.6942 47.349 94.8375 47.6915 95.0269 47.9996C95.2148 48.3077 95.4631 48.5506 95.7703 48.73C96.0775 48.9094 96.4246 48.9982 96.8114 48.9982C98.0387 48.9982 98.7391 48.2968 98.9094 46.8959H98.2138C98.1851 47.3218 98.0371 47.6662 97.7697 47.9289C97.5006 48.1935 97.16 48.3258 96.7445 48.3258C96.267 48.3258 95.8817 48.0775 95.5873 47.5791C95.2944 47.0808 95.1479 46.4682 95.1479 45.7414C95.1479 45.2775 95.2116 44.8516 95.3389 44.4637C95.4647 44.0723 95.6509 43.7624 95.8977 43.5268Z" fill="#0C8CE9"/>
<path d="M105.159 40H104.516V48.8116H105.159V40Z" fill="#0C8CE9"/>
<path d="M111.918 40H111.17V40.917H111.918V40Z" fill="#0C8CE9"/>
<path d="M111.866 42.688H111.223V48.8137H111.866V42.688Z" fill="#0C8CE9"/>
<path d="M122.09 44.183C122.06 44.0126 122.02 43.8531 121.968 43.7063C121.915 43.5595 121.842 43.4091 121.745 43.2569C121.649 43.1046 121.536 42.9741 121.407 42.8672C121.278 42.7603 121.114 42.6733 120.917 42.6044C120.72 42.5374 120.501 42.5029 120.261 42.5029C119.905 42.5029 119.583 42.5954 119.293 42.7838C119.004 42.9705 118.766 43.2478 118.582 43.6175L118.561 43.5885L118.529 42.6896H117.864C117.899 43.3837 117.916 43.8441 117.916 44.0652V48.8135H118.559V45.2867C118.559 44.9061 118.612 44.5599 118.719 44.25C118.825 43.9401 118.997 43.6846 119.238 43.4816C119.476 43.2786 119.764 43.1771 120.103 43.1771C120.543 43.1771 120.888 43.3257 121.14 43.6211C121.391 43.9166 121.517 44.3298 121.517 44.8572V48.8135H122.16V44.9822C122.16 44.859 122.155 44.7375 122.147 44.6179C122.139 44.4983 122.12 44.3533 122.09 44.183Z" fill="#0C8CE9"/>
<path d="M128.908 40H128.16V40.917H128.908V40Z" fill="#0C8CE9"/>
<path d="M128.855 42.688H128.212V48.8137H128.855V42.688Z" fill="#0C8CE9"/>
<path d="M135.988 43.5268C136.233 43.293 136.515 43.1752 136.833 43.1752C137.761 43.1752 138.252 43.6373 138.304 44.5634H139C138.976 43.9273 138.769 43.4253 138.379 43.0556C137.991 42.6858 137.512 42.501 136.943 42.501C136.556 42.501 136.208 42.5916 135.896 42.7728C135.585 42.9541 135.332 43.1969 135.14 43.5032C134.945 43.8095 134.797 44.1538 134.694 44.538C134.59 44.9205 134.54 45.3246 134.54 45.7505C134.54 46.18 134.589 46.5842 134.686 46.9666C134.783 47.349 134.926 47.6915 135.116 47.9996C135.304 48.3077 135.552 48.5506 135.859 48.73C136.166 48.9094 136.513 48.9982 136.9 48.9982C138.128 48.9982 138.828 48.2968 138.998 46.8959H138.303C138.274 47.3218 138.126 47.6662 137.859 47.9289C137.59 48.1935 137.249 48.3258 136.833 48.3258C136.356 48.3258 135.971 48.0775 135.676 47.5791C135.383 47.0808 135.237 46.4682 135.237 45.7414C135.237 45.2775 135.3 44.8516 135.428 44.4637C135.555 44.0723 135.743 43.7624 135.988 43.5268Z" fill="#0C8CE9"/>
</svg>
